<svg width="170" height="140" id="yt" viewBox="0 0 110 97" fill="none" xmlns="http://www.w3.org/2000/svg">
<g filter="url(#filter0_d)">
<path d="M100.91 16.5019C99.7603 11.1872 96.3718 7.00159 92.0693 5.58113C84.2709 3 53 3 53 3C53 3 21.7293 3 13.9306 5.58113C9.62823 7.00181 6.23968 11.1872 5.0896 16.5019C3 26.1349 3 46.2334 3 46.2334C3 46.2334 3 66.332 5.0896 75.965C6.23968 81.2797 9.62823 85.2909 13.9306 86.7114C21.7293 89.2925 53 89.2925 53 89.2925C53 89.2925 84.2707 89.2925 92.0693 86.7114C96.3718 85.2909 99.7603 81.2797 100.91 75.965C103 66.332 103 46.2334 103 46.2334C103 46.2334 103 26.1349 100.91 16.5019ZM42.7727 64.4814V27.9855L68.9089 46.2339L42.7727 64.4814Z" fill="#CDD5E0"/>
<path d="M53 3C53 2.5 52.9999 2.5 52.9996 2.5L52.9985 2.5L52.9941 2.5L52.977 2.50001L52.9094 2.50008L52.6455 2.50063C52.4141 2.50126 52.0739 2.50253 51.6382 2.50505C50.7668 2.5101 49.5136 2.52019 47.9855 2.54037C44.9295 2.58074 40.7728 2.66147 36.3715 2.82298C31.9711 2.98445 27.3213 3.22683 23.2804 3.59093C19.2564 3.95352 15.7855 4.44062 13.7739 5.10635L53 3ZM53 3C53 2.5 53.0001 2.5 53.0004 2.5L53.0015 2.5L53.0059 2.5L53.023 2.50001L53.0906 2.50008L53.3544 2.50063C53.5859 2.50126 53.9261 2.50253 54.3618 2.50505C55.2332 2.5101 56.4864 2.52019 58.0145 2.54037C61.0706 2.58074 65.2272 2.66147 69.6286 2.82298C74.0289 2.98445 78.6788 3.22683 82.7197 3.59093C86.7436 3.95352 90.2145 4.44062 92.2261 5.10634C96.7329 6.59427 100.22 10.9491 101.399 16.3961C102.454 21.2597 102.977 28.7322 103.238 34.9591C103.369 38.0789 103.435 40.8967 103.467 42.9345C103.484 43.9535 103.492 44.7777 103.496 45.3474C103.497 45.5202 103.498 45.6696 103.499 45.794C103.499 45.8746 103.499 45.9446 103.499 46.0037L103.5 46.1747L103.5 46.2184L103.5 46.2296V46.2324V46.2332C103.5 46.2333 103.5 46.2334 103 46.2334C103.5 46.2334 103.5 46.2335 103.5 46.2337V46.2345V46.2373L103.5 46.2485L103.5 46.2922L103.499 46.4632C103.499 46.6134 103.498 46.8346 103.496 47.1195C103.492 47.6891 103.484 48.5134 103.467 49.5324C103.435 51.5702 103.369 54.388 103.238 57.5078C102.977 63.7347 102.454 71.2072 101.399 76.0708C100.218 81.5269 96.7254 85.7006 92.2264 87.1861C90.2149 87.8518 86.7438 88.339 82.7196 88.7016C78.6787 89.0657 74.0289 89.3081 69.6285 89.4695C65.2272 89.631 61.0705 89.7118 58.0145 89.7521C56.4864 89.7723 55.2331 89.7824 54.3618 89.7875C53.9261 89.79 53.5859 89.7912 53.3544 89.7919L53.0906 89.7924L53.023 89.7925L53.0059 89.7925H53.0015H53.0004C53.0001 89.7925 53 89.7925 53 89.2925C53 89.7925 52.9999 89.7925 52.9996 89.7925H52.9985H52.9941L52.977 89.7925L52.9094 89.7924L52.6455 89.7919C52.4141 89.7912 52.0739 89.79 51.6382 89.7875C50.7668 89.7824 49.5136 89.7723 47.9855 89.7521C44.9295 89.7118 40.7728 89.631 36.3715 89.4695C31.9711 89.3081 27.3213 89.0657 23.2804 88.7016C19.2562 88.339 15.7851 87.8518 13.7735 87.1861C9.27466 85.7006 5.78172 81.527 4.60096 76.071C3.54595 71.2074 3.02277 63.7348 2.76164 57.5078C2.63081 54.388 2.56541 51.5702 2.53271 49.5324C2.51636 48.5134 2.50818 47.6891 2.50409 47.1195C2.50205 46.8346 2.50103 46.6134 2.50051 46.4632L2.50006 46.2922L2.50001 46.2485L2.5 46.2373L2.5 46.2345L2.5 46.2337C2.5 46.2335 2.5 46.2334 3 46.2334M53 3L3 46.2334M3 46.2334C2.5 46.2334 2.5 46.2333 2.5 46.2332L2.5 46.2324L2.5 46.2296L2.50001 46.2184L2.50006 46.1747L2.50051 46.0037C2.50103 45.8535 2.50205 45.6323 2.50409 45.3474C2.50818 44.7777 2.51636 43.9535 2.53271 42.9345C2.56541 40.8967 2.63081 38.0789 2.76164 34.9591C3.02276 28.7322 3.54593 21.2597 4.60091 16.3961C5.77961 10.9492 9.26695 6.59471 13.7735 5.10646L3 46.2334ZM68.0355 46.2339L43.2727 63.5225V28.9444L68.0355 46.2339Z" stroke="white" stroke-opacity="0.5"/>
</g>
<defs>
<filter id="filter0_d" x="0" y="0" width="110" height="96.2925" filterUnits="userSpaceOnUse" color-interpolation-filters="sRGB">
<feFlood flood-opacity="0" result="BackgroundImageFix"/>
<feColorMatrix in="SourceAlpha" type="matrix" values="0 0 0 0 0 0 0 0 0 0 0 0 0 0 0 0 0 0 127 0"/>
<feOffset dx="2" dy="2"/>
<feGaussianBlur stdDeviation="2"/>
<feColorMatrix type="matrix" values="0 0 0 0 0 0 0 0 0 0 0 0 0 0 0 0 0 0 0.25 0"/>
<feBlend mode="normal" in2="BackgroundImageFix" result="effect1_dropShadow"/>
<feBlend mode="normal" in="SourceGraphic" in2="effect1_dropShadow" result="shape"/>
</filter>
</defs>
</svg>
